#N canvas 557 124 287 505 10;
#X obj 77 73 inlet;
#X obj 92 193 f;
#X msg 92 213 get \$1 1;
#X obj 92 233 list store;
#X obj 92 113 list length;
#X obj 92 173 until;
#X obj 122 193 - 1;
#X obj 92 153 + 1;
#X obj 137 293 f;
#X obj 167 293 + 1;
#X obj 92 313 pack f f;
#X obj 92 333 expr $f1 * pow(2 \, $f2);
#X obj 92 253 t f b;
#X obj 92 133 t f f;
#X obj 92 373 +;
#X obj 92 393 t f f;
#X obj 77 413 f;
#X obj 151 273 0;
#X obj 77 93 t b a b b a;
#X obj 107 353 0;
#X obj 77 433 outlet;
#X text 73 19 binary to decimal;
#X connect 0 0 18 0;
#X connect 1 0 2 0;
#X connect 1 0 6 0;
#X connect 2 0 3 0;
#X connect 3 0 12 0;
#X connect 4 0 13 0;
#X connect 5 0 1 0;
#X connect 6 0 1 1;
#X connect 7 0 5 0;
#X connect 8 0 9 0;
#X connect 8 0 10 1;
#X connect 9 0 8 1;
#X connect 10 0 11 0;
#X connect 11 0 14 0;
#X connect 12 0 10 0;
#X connect 12 1 8 0;
#X connect 13 0 7 0;
#X connect 13 1 1 1;
#X connect 14 0 15 0;
#X connect 15 0 16 1;
#X connect 15 1 14 1;
#X connect 16 0 20 0;
#X connect 17 0 8 1;
#X connect 18 0 16 0;
#X connect 18 1 4 0;
#X connect 18 2 19 0;
#X connect 18 3 17 0;
#X connect 18 4 3 1;
#X connect 19 0 14 1;
