#N canvas 655 431 450 430 12;
#X obj 124 6 inlet;
#X obj 264 385 outlet;
#X obj 182 105 outlet;
#X obj 156 172 text get PARAMS, f 8;
#X obj 320 182 f;
#X obj 124 336 list append;
#X obj 124 149 t a a;
#X obj 124 105 t b a b;
#X obj 156 247 demux 0 1;
#X obj 156 285 -;
#X obj 216 285 +;
#X obj 234 250 <<;
#X msg 234 194 1 \$1;
#X obj 124 127 \$2;
#X obj 337 161 r \$1encWise;
#X obj 234 172 - \$3;
#X obj 177 11 loadbang;
#X obj 177 34 \$3;
#X obj 124 82 moses;
#X obj 177 58 + 4;
#X connect 0 0 18 0;
#X connect 3 0 8 0;
#X connect 4 0 8 1;
#X connect 5 0 1 0;
#X connect 6 0 5 0;
#X connect 6 1 3 0;
#X connect 7 0 13 0;
#X connect 7 1 15 0;
#X connect 7 2 4 0;
#X connect 8 0 9 0;
#X connect 8 1 10 0;
#X connect 9 0 5 1;
#X connect 10 0 5 1;
#X connect 11 0 9 1;
#X connect 11 0 10 1;
#X connect 12 0 11 0;
#X connect 13 0 6 0;
#X connect 14 0 4 1;
#X connect 15 0 12 0;
#X connect 16 0 17 0;
#X connect 17 0 19 0;
#X connect 18 0 7 0;
#X connect 18 1 2 0;
#X connect 19 0 18 1;
