#N canvas 557 124 312 432 10;
#X obj 77 73 inlet;
#X obj 77 113 sel 0;
#X text 116 113 integer must be > 0;
#X obj 77 93 int;
#X obj 144 213 mod 2;
#X obj 104 173 f;
#X obj 104 193 t f f;
#X obj 104 213 / 2;
#X obj 104 153 until;
#X obj 104 233 int;
#X obj 104 253 sel 0;
#X obj 104 273 t b b;
#X msg 144 233 prepend \$1;
#X obj 144 303 list store;
#X obj 104 133 t b f b;
#X obj 77 303 0;
#X text 83 19 decimal 2 binary;
#X obj 144 344 outlet;
#X connect 0 0 3 0;
#X connect 1 0 15 0;
#X connect 1 1 14 0;
#X connect 3 0 1 0;
#X connect 4 0 12 0;
#X connect 5 0 6 0;
#X connect 6 0 7 0;
#X connect 6 1 4 0;
#X connect 7 0 9 0;
#X connect 8 0 5 0;
#X connect 9 0 10 0;
#X connect 10 0 11 0;
#X connect 10 1 5 1;
#X connect 11 0 13 0;
#X connect 11 1 8 1;
#X connect 12 0 13 0;
#X connect 13 0 17 0;
#X connect 14 0 8 0;
#X connect 14 1 5 1;
#X connect 14 2 13 1;
#X connect 15 0 17 0;
