#N canvas 0 50 534 300 12;
#X obj 206 246 s \$0-led;
#X obj 210 190 list;
#X msg 245 159 #ff5644;
#X msg 314 159 #9eF800;
#X msg 208 216 color \$1 \$1 0;
#X msg 210 158 0;
#X obj 214 76 route state;
#X obj 214 113 sel 0 1 2;
#X obj 214 46 route \$1;
#X obj 214 14 r KEYBOARD-r;
#X obj 405 238 s KEYBOARD-s;
#X obj 405 126 r \$0-btn;
#X obj 405 173 list prepend \$1;
#X obj 101 101 cnv 15 23 48 empty \$0cnv empty 20 12 0 14 -64 -66577
0;
#X obj 105 129 bng 15 250 50 0 \$0-btn empty empty 17 7 0 10 -262144
-1 -1;
#X obj 105 108 tgl 15 0 empty \$0-led empty 17 7 0 10 -262144 -262144
-262144 0 1;
#X obj 19 37 loadbang;
#X obj 19 61 f \$2;
#X obj 19 85 sel 0 1;
#X obj 19 210 list;
#X msg 19 246 color \$1;
#X obj 19 270 s \$0cnv;
#X msg 53 116 #00;
#X msg 47 170 #ffffff;
#X connect 1 0 4 0;
#X connect 2 0 1 0;
#X connect 3 0 1 0;
#X connect 4 0 0 0;
#X connect 5 0 1 0;
#X connect 6 0 7 0;
#X connect 7 0 5 0;
#X connect 7 1 2 0;
#X connect 7 2 3 0;
#X connect 8 0 6 0;
#X connect 9 0 8 0;
#X connect 11 0 12 0;
#X connect 12 0 10 0;
#X connect 16 0 17 0;
#X connect 17 0 18 0;
#X connect 18 0 23 0;
#X connect 18 1 22 0;
#X connect 19 0 20 0;
#X connect 20 0 21 0;
#X connect 22 0 19 0;
#X connect 23 0 19 0;
#X coords 0 -1 1 1 25 50 2 100 100;
