#N canvas 259 237 550 566 10;
#N canvas 904 239 872 735 monitor 0;
#X obj 229 76 +;
#X obj 258 57 hradio 15 1 0 10 empty empty empty 0 -8 0 10 -262144
-1 -1 9;
#X obj 282 29 nbx 2 14 -1e+037 1e+037 0 0 empty empty empty 0 -8 0
10 -262144 -1 -1 0 256;
#X obj 256 75 * 10;
#X obj 228 97 list prepend r;
#X obj 105 112 bng 15 250 50 0 empty empty Load 17 7 0 10 -262144 -1
-1;
#X obj 155 112 nbx 3 14 0 127 0 0 programNumber empty empty 0 -8 0
10 -262144 -1 -1 41 256;
#X obj 101 204 cnv 15 98 15 empty \$0-gui1 empty 20 6 0 14 -233017
-66577 0;
#X obj 101 170 cnv 15 98 15 empty \$0-gui2 Oscillators 2 8 0 12 -233017
-66577 0;
#X symbolatom 101 153 16 0 0 0 - #0program-r #0program-s;
#X obj 120 25 f;
#X obj 158 344 r xload;
#N canvas 1101 264 539 521 hexa2dec 0;
#X obj 43 8 inlet;
#X obj 49 482 outlet;
#X obj 123 123 list split 1;
#X obj 248 357 f;
#X obj 43 27 t a b;
#X obj 272 327 * 16;
#X obj 49 410 +;
#X msg 247 269 10;
#X msg 277 269 11;
#X msg 306 268 12;
#X msg 336 268 13;
#X msg 364 268 14;
#X msg 394 269 15;
#X obj 49 335 f;
#X obj 49 182 t b a;
#X obj 157 147 t b a;
#X obj 157 411 f;
#X obj 187 412 + 1;
#X obj 92 9 inlet;
#X msg 92 262 0, f 1;
#X obj 364 218 f;
#X obj 241 225 sel A B C D E F;
#X obj 184 175 route bang;
#X obj 123 76 list split 1;
#X obj 123 104 list prepend;
#X msg 212 76 0;
#X obj 49 463 list append;
#X connect 0 0 4 0;
#X connect 2 0 14 0;
#X connect 2 1 15 0;
#X connect 3 0 6 1;
#X connect 4 0 23 0;
#X connect 4 1 25 0;
#X connect 5 0 3 1;
#X connect 6 0 26 0;
#X connect 7 0 5 0;
#X connect 7 0 13 1;
#X connect 8 0 5 0;
#X connect 8 0 13 1;
#X connect 9 0 5 0;
#X connect 9 0 13 1;
#X connect 10 0 5 0;
#X connect 10 0 13 1;
#X connect 11 0 5 0;
#X connect 11 0 13 1;
#X connect 12 0 5 0;
#X connect 12 0 13 1;
#X connect 13 0 6 0;
#X connect 14 0 13 0;
#X connect 14 1 21 0;
#X connect 15 0 3 0;
#X connect 15 0 16 0;
#X connect 15 1 22 0;
#X connect 16 0 17 0;
#X connect 16 0 26 1;
#X connect 17 0 16 1;
#X connect 18 0 19 0;
#X connect 19 0 16 1;
#X connect 20 0 5 0;
#X connect 20 0 13 1;
#X connect 21 0 7 0;
#X connect 21 1 8 0;
#X connect 21 2 9 0;
#X connect 21 3 10 0;
#X connect 21 4 11 0;
#X connect 21 5 12 0;
#X connect 21 6 20 0;
#X connect 22 1 21 0;
#X connect 23 0 24 0;
#X connect 23 1 24 1;
#X connect 24 0 2 0;
#X connect 25 0 24 1;
#X connect 25 0 6 1;
#X connect 25 0 13 1;
#X connect 25 0 3 1;
#X connect 26 0 1 0;
#X restore 116 534 pd hexa2dec;
#X obj 64 413 list-abs/list-drip;
#X obj 158 386 t a b;
#X msg 77 478 symbol;
#X obj 64 499 s2l;
#X obj 77 460 loadbang;
#X obj 158 363 route params name;
#X obj 244 402 list;
#X obj 278 526 s \$0program-r;
#X msg 278 508 set \$1;
#X obj 328 501 s \$0program;
#X msg 326 476 name \$1;
#X obj 165 46 s \$0program;
#X obj 120 46 t a a;
#X msg 157 75 set \$1;
#X obj 101 187 cnv 15 98 15 empty \$0-gui3 DCO.1 2 8 0 10 -233017 -66577
0;
#X obj 249 424 l2s;
#X obj 64 436 makesymbol %s;
#X obj 268 657 text define PARAMS;
#X obj 180 693 text set PARAMS;
#X msg 223 634 1e+015;
#X msg 191 632 \$1;
#X msg 271 634 clear;
#X obj 106 133 bng 15 250 50 0 writeProgram empty Write 17 7 0 10 -262144
-1 -1;
#X obj 101 221 cnv 15 98 15 empty \$0-gui4 empty 20 6 0 14 -233017
-66577 0;
#X obj 23 38 bng 15 250 50 0 empty empty empty 17 7 0 10 -262144 -1
-1;
#X obj 424 58 r error;
#X obj 484 79 print ERROR;
#N canvas 0 50 450 300 brackets 0;
#X obj 149 15 inlet;
#X obj 149 251 outlet;
#X obj 172 97 list tosymbol;
#X msg 172 77 123;
#X obj 172 118 t a b;
#X obj 200 156 list tosymbol;
#X msg 200 136 125;
#X obj 136 47 t a b;
#X obj 172 176 list;
#X obj 149 224 list;
#X connect 0 0 7 0;
#X connect 2 0 4 0;
#X connect 3 0 2 0;
#X connect 4 0 8 0;
#X connect 4 1 6 0;
#X connect 5 0 8 1;
#X connect 6 0 5 0;
#X connect 7 0 9 0;
#X connect 7 1 3 0;
#X connect 8 0 9 1;
#X connect 9 0 1 0;
#X restore 227 120 pd brackets;
#X msg 393 113 label XVA1;
#X obj 424 79 t b b a;
#X msg 466 114 label not.connected;
#X msg 228 251 \; SYS_GUI set params [exec $xload "d"] \, pdsend "xload
params $params" \, set name [exec $xload "n"] \, pdsend "xload name
$name";
#X obj 228 228 r noError;
#X msg 227 172 \; SYS_GUI try \$3 exec $xload "\$1 \$2" \$4 on error
\$3 msg \$4 \$3 pdsend "error $msg" \$4 on ok \$3 msg2 \$4 \$3 pdsend
"noError bang" \$4;
#X obj 393 138 s \$0-gui2;
#X obj 466 137 s \$0-gui3;
#X msg 276 562 \; SHIFT-r 1 \; KEYBOARD-s 0 \; SHIFT-r 0 \;;
#X obj 40 61 loadbang;
#X obj 311 312 r getCTL;
#X obj 311 375 s \$0-gui2;
#X obj 384 374 s \$0-gui3;
#X msg 311 350 label Set;
#X msg 384 351 label Perf_CTL;
#N canvas 0 50 450 300 brackets 0;
#X obj 149 15 inlet;
#X obj 149 251 outlet;
#X obj 172 97 list tosymbol;
#X msg 172 77 123;
#X obj 172 118 t a b;
#X obj 200 156 list tosymbol;
#X msg 200 136 125;
#X obj 136 47 t a b;
#X obj 172 176 list;
#X obj 149 224 list;
#X connect 0 0 7 0;
#X connect 2 0 4 0;
#X connect 3 0 2 0;
#X connect 4 0 8 0;
#X connect 4 1 6 0;
#X connect 5 0 8 1;
#X connect 6 0 5 0;
#X connect 7 0 9 0;
#X connect 7 1 3 0;
#X connect 8 0 9 1;
#X connect 9 0 1 0;
#X restore 447 534 pd brackets;
#X msg 447 555 \; SYS_GUI try \$3 exec $xload "\$1 \$2" \$4 on error
\$3 msg \$4 \$3 pdsend "error $msg" \$4 \;;
#X obj 447 514 list prepend w;
#X obj 462 474 r programNumber;
#X obj 447 454 r writeProgram;
#X obj 447 495 f 0;
#X connect 0 0 4 0;
#X connect 0 0 26 0;
#X connect 1 0 0 0;
#X connect 2 0 3 0;
#X connect 3 0 0 1;
#X connect 4 0 40 0;
#X connect 5 0 10 0;
#X connect 6 0 10 1;
#X connect 10 0 25 0;
#X connect 11 0 18 0;
#X connect 12 0 33 0;
#X connect 13 0 29 0;
#X connect 14 0 13 0;
#X connect 14 1 12 1;
#X connect 14 1 34 0;
#X connect 14 1 32 0;
#X connect 15 0 16 1;
#X connect 16 0 12 0;
#X connect 17 0 15 0;
#X connect 18 0 14 0;
#X connect 18 1 19 0;
#X connect 18 1 49 0;
#X connect 19 0 28 0;
#X connect 21 0 20 0;
#X connect 23 0 22 0;
#X connect 25 0 4 0;
#X connect 25 1 24 0;
#X connect 26 0 6 0;
#X connect 28 0 21 0;
#X connect 28 0 23 0;
#X connect 29 0 16 0;
#X connect 32 0 31 1;
#X connect 33 0 31 0;
#X connect 34 0 30 0;
#X connect 38 0 42 0;
#X connect 40 0 46 0;
#X connect 41 0 47 0;
#X connect 42 0 41 0;
#X connect 42 1 43 0;
#X connect 42 2 39 0;
#X connect 43 0 48 0;
#X connect 45 0 44 0;
#X connect 50 0 5 0;
#X connect 51 0 54 0;
#X connect 51 0 55 0;
#X connect 54 0 52 0;
#X connect 55 0 53 0;
#X connect 56 0 57 0;
#X connect 58 0 56 0;
#X connect 59 0 61 1;
#X connect 60 0 61 0;
#X connect 61 0 58 0;
#X coords 0 -1 1 1 100 150 2 100 100;
#X restore 24 91 pd monitor;
#X obj 60 251 bng 15 250 50 0 pageUP empty pageUP 17 7 0 10 -262144
-1 -1;
#X obj 59 318 bng 15 250 50 0 pageDOWN empty pageDOWN 17 7 0 10 -262144
-1 -1;
#X text 204 360 filters;
#X text 263 360 EG;
#X text 382 361 StepSeq;
#X text 302 361 LFO;
#X text 484 362 Global;
#X text 185 287 FX;
#X text 336 361 LFOmod;
#X obj 56 357 tgl 15 0 SHIFT SHIFT-r Shift 17 7 0 10 -262144 -1 -1
0 1;
#N canvas 754 25 391 338 stuff 0;
#X obj 219 246 r \$0program;
#X msg 41 354 read names.txt;
#N canvas 33 498 385 398 get 0;
#X obj 48 253 text get paramNames;
#X obj 170 66 +;
#X floatatom 170 10 5 0 0 0 - - -;
#X floatatom 129 9 5 0 0 0 - - -;
#X obj 173 302 list prepend;
#X obj 281 190 t l;
#X obj 116 123 t a a a b;
#X obj 220 356 print name;
#X obj 59 277 route -1;
#X obj 87 96 inlet;
#X obj 168 351 outlet;
#X obj 145 329 l2s .;
#X obj 190 35 * 256;
#X obj 84 188 mod 256;
#X obj 133 170 / 256;
#X obj 133 191 mod 256;
#X floatatom 224 111 6 0 0 0 - - -;
#X floatatom 164 101 5 0 0 0 - - -;
#X obj 102 36 t b a;
#X connect 0 0 8 0;
#X connect 1 0 6 0;
#X connect 1 0 16 0;
#X connect 2 0 1 0;
#X connect 3 0 18 0;
#X connect 4 0 5 0;
#X connect 4 0 11 0;
#X connect 4 0 7 0;
#X connect 5 0 4 1;
#X connect 6 0 13 0;
#X connect 6 1 14 0;
#X connect 6 3 5 0;
#X connect 8 1 4 0;
#X connect 9 0 6 0;
#X connect 11 0 10 0;
#X connect 12 0 1 1;
#X connect 13 0 0 0;
#X connect 14 0 15 0;
#X connect 15 0 0 0;
#X connect 17 0 6 0;
#X connect 18 0 1 0;
#X connect 18 1 12 0;
#X restore 42 411 pd get paramName;
#X obj 41 383 text define -k paramNames;
#A set -1 \; 0 \; 1 \; 2 \; 3 \; 4 \; 5 \; 6 \; 7 \; 8 \; 9 \; 10 \;
11 \; 12 \; 13 \; 14 \; 15 \; 16 \; Oscillators \; DCO \; On \; Sync
\; Keytrack \; Phase \; Waveform \; Pulse \; Width \; Sawstack \; Detune
\; Transpose \; Drift \; Level \; L \; R \; Velo \; Sens \; Key \;
BP \; LDepth \; RDepth \; LCurve \; RCurve \; PMS \; AMS \; Global
\; RingMod3-4 \; Off \; Saw \; Triangle \; Sine \; Noise \; Up \; Down
\; Sawstack-3 \; Sawstack-7 \; Mono \; Stereo \; 0째 \; 90째 \; 180째
\; 270째 \; Filters \; Filter \; Type \; Cutoff \; Reso \; Track \;
EG \; Depth \; Drive \; Routing \; Bypass \; 1-Pole \; 2-Pole \; 3-Pole
\; 4-Pole \; LP \; HP \; BP \; Reject \; 2-Pole-LP-> \; 2x \; Pitch
\; Amp \; Start \; Attack \; Decay \; Sustain \; Release \; Release2
\; Delay \; Loop \; Loop_Seg \; Restart \; Rate \; Range \; LFO \;
Speed \; Fade \; PW \; Square \; 3x \; ^3 \; Guitar \; Random \; Single
\; Multi \; Free \; Mod \; After \; Wheel \; Breath \; Foot \; Step
\; Sequencer \; Settings \; Steps \; Tempo \; Mul \; Step \; Arp \;
Mode \; AsPlayed \; Octaves \; MIDI \; Volume \; Temp \; VC \; Bend
\; Legato \; Porta \; Time \; Pan \; Offset \; Tuning \; Fingered \;
Always \; Output \; FX \; Gain-Pre \; Gain-Post \; dB \; 18 \; Dry
\; Wet \; Feedback \; Low \; High \; Div \; Smear \; Cross \; Bounce
\; Bit \; Chorus \; Flanger \; LR \; Long \; Short \; Phaser \; Stages
\; EarlyReflections \; Room \; Taps \; Reverb \; Damp \; HPF \; Plate
\; Hall \; Gate \; Curve \; Shape \; Disto \; Filter-Post \; Hard \;
Soft \; Clip \; Tube \; 12AX7 \; DSL \; BitCrusher \; Decimator \;
Band \; 48 \; kHz \; 20 \; ->Mod \; ->Delay \; Controllers \; Performance
\; CTL \;;
#N canvas 50 475 611 381 main 0;
#X obj 81 2 r KEYBOARD-s;
#X obj 81 22 spigot;
#X text 226 12 shortcut name <long> \, page start <byte> \, page range
<byte>;
#X obj 81 83 text get shortcut;
#X obj 163 101 s pageRANGE;
#X obj 138 20 r SHIFT;
#X obj 81 101 unpack f f f;
#X obj 122 120 r PAGE;
#X obj 115 158 +;
#X obj 115 176 text get page;
#X obj 115 194 list split 1;
#X text 254 54 page name <byte> params names <byte> params <list>;
#X obj 320 31 text define -k shortcut;
#A set 18 0 5 \; 61 5 2 \; 67 7 4 \; 96 11 2 \; 24684 13 4 \; 29042
17 2 \; 31852 19 4 \; 44 23 3 \; 138 26 11 \; 187 37 1 \;;
#X obj 315 72 text define -k page;
#A set 4866 0 1 512 516 7 11 15 285 19 23 260 31 32 27 43 47 51 55
59 39 63 67 \; 4867 0 2 513 517 8 12 16 286 20 24 261 33 34 28 44 48
52 56 60 40 64 68 \; 4868 0 3 514 518 9 13 17 287 21 25 262 35 36 29
45 49 53 57 61 41 65 69 \; 4869 0 4 515 519 10 14 18 288 22 26 263
37 38 30 46 50 54 58 62 42 66 70 \; 44 1 271 \; 15874 2 71 72 77 73
74 75 76 276 277 275 278 \; 15875 3 78 79 \; 83 4 82 87 92 97 112 117
122 127 102 107 522 523 132 137 528 \; 64 4 81 86 91 96 111 116 121
126 101 106 521 524 131 136 527 \; 82 4 80 85 90 95 110 115 120 125
100 105 520 523 130 135 526 \; 44 5 148 149 \; 24578 6 160 166 161
162 163 164 165 \; 24579 7 170 176 171 172 173 174 175 \; 21088 8 180
181 182 183 \; 25440 8 184 185 186 187 \; 15968 8 188 189 190 191 \;
21344 8 192 193 194 195 \; 115 9 428 429 430 431 432 433 \; 116 10
434 435 436 437 438 439 440 441 442 442 443 444 445 446 447 448 449
\; 82 11 200 201 202 220 221 222 203 \; 6426 12 204 205 206 207 223
224 225 \; 64 12 208 209 210 211 226 227 228 \; 125 12 212 213 214
215 229 230 231 \; 115 13 241 242 243 244 245 246 247 248 249 251 239
\; 137 14 509 510 511 \; 120 15 450 451 453 454 \; 90 16 300 301 302
303 304 305 306 307 308 309 298 299 291 292 \; 39322 17 360 361 362
363 364 365 366 \; 158 18 310 311 312 313 314 315 316 317 318 \; 21356
19 330 331 332 333 \; 160 20 294 295 296 293 297 \; 163 21 390 391
392 393 394 397 395 396 \; 168 22 385 386 387 388 \; 171 23 350 354
351 352 353 \; 39050 24 340 380 370 \; 62 25 320 321 \; 35398 26 508
\; 188 27 532 533 534 535 536 537 538 539 \;;
#X obj 336 113 text define -k pageParamNames;
#A set 5166 21 22 23 24 6426 6940 29 28 30 7968 7969 31 9253 9254 9255
9256 9257 8739 42 43 \; 45 \; 63 64 65 34 9282 17220 17186 8769 5697
69 70 \; 64 65 \; 84 85 86 87 90 21854 22110 22366 88 89 17243 17244
22622 22878 17245 \; 21087 21026 \; 24 95 97 21 98 17490 17491 \; 24
95 97 21 98 17507 17472 \; 109 110 111 112 \; 5166 34 116 117 118 29
\; 28930 28931 28932 28933 28934 28935 28936 28937 28938 28939 28940
28941 28942 28943 28944 28945 \; 109 111 112 126 32513 32514 104 \;
109 110 111 112 126 32513 32514 \; 29 32819 32820 129 33401 33411 132
125 8837 134 32389 \; 125 35722 35978 \; 121 117 118 123 \; 143 144
121 131 145 146 147 117 118 148 27745 27716 149 81 \; 143 144 121 97
68 145 39703 \; 143 144 121 68 97 145 133 159 39703 \; 68 97 95 39703
\; 143 144 161 162 145 \; 143 144 121 86 164 165 27745 27716 \; 5166
169 85 88 \; 5166 63 139 140 172 \; 46362 179 180 \; 146 147 \; 70
\; 48386 48387 48388 48389 48390 48391 48392 48393 \;;
#X f 14;
#N canvas 0 202 246 109 gui3 0;
#X obj 24 14 inlet;
#X obj 24 52 list prepend label;
#X obj 24 71 list trim;
#X obj 24 90 s \$0-gui3;
#N canvas 471 499 385 398 get 0;
#X obj 54 200 text get paramNames;
#X obj 179 249 list prepend;
#X obj 285 136 t l;
#X obj 122 70 t a a a b;
#X obj 65 224 route -1;
#X obj 125 8 inlet;
#X obj 32 329 outlet;
#X obj 151 276 l2s .;
#X obj 32 310 list;
#X obj 32 45 t b a;
#X obj 90 135 mod 256;
#X obj 139 117 / 256;
#X obj 139 138 mod 256;
#X connect 0 0 4 0;
#X connect 1 0 2 0;
#X connect 1 0 7 0;
#X connect 2 0 1 1;
#X connect 3 0 10 0;
#X connect 3 1 11 0;
#X connect 3 3 2 0;
#X connect 4 1 1 0;
#X connect 5 0 9 0;
#X connect 7 0 8 1;
#X connect 8 0 6 0;
#X connect 9 0 8 0;
#X connect 9 1 3 0;
#X connect 10 0 0 0;
#X connect 11 0 12 0;
#X connect 12 0 0 0;
#X restore 24 33 pd get paramName;
#X connect 0 0 4 0;
#X connect 1 0 2 0;
#X connect 2 0 3 0;
#X connect 4 0 1 0;
#X restore 115 315 pd gui3;
#N canvas 0 50 187 168 gui2 0;
#X obj 27 17 inlet;
#X obj 28 68 list prepend label;
#X obj 28 86 list trim;
#X obj 28 104 s \$0-gui2;
#N canvas 471 499 385 398 get 0;
#X obj 54 200 text get paramNames;
#X obj 179 249 list prepend;
#X obj 285 136 t l;
#X obj 122 70 t a a a b;
#X obj 65 224 route -1;
#X obj 125 8 inlet;
#X obj 32 329 outlet;
#X obj 151 276 l2s .;
#X obj 32 310 list;
#X obj 32 45 t b a;
#X obj 90 135 mod 256;
#X obj 139 117 / 256;
#X obj 139 138 mod 256;
#X connect 0 0 4 0;
#X connect 1 0 2 0;
#X connect 1 0 7 0;
#X connect 2 0 1 1;
#X connect 3 0 10 0;
#X connect 3 1 11 0;
#X connect 3 3 2 0;
#X connect 4 1 1 0;
#X connect 5 0 9 0;
#X connect 7 0 8 1;
#X connect 8 0 6 0;
#X connect 9 0 8 0;
#X connect 9 1 3 0;
#X connect 10 0 0 0;
#X connect 11 0 12 0;
#X connect 12 0 0 0;
#X restore 27 49 pd get paramName;
#X connect 0 0 4 0;
#X connect 1 0 2 0;
#X connect 2 0 3 0;
#X connect 4 0 1 0;
#X restore 81 336 pd gui2;
#X obj 275 162 text define -k pageParamMode;
#A set 0 0 1 2 3 -1 -1 -1 -1 -1 -1 -1 -1 -1 -1 -1 -1 -1 -1 -1 -1 \;
0 \; 4 -1 -1 -1 -1 -1 -1 -1 -1 5 6 \; -1 -1 \; -1 -1 -1 -1 -1 -1 -1
-1 -1 -1 0 0 -1 -1 0 \; -1 -1 \; 7 -1 -1 8 -1 -1 -1 \; 7 -1 -1 8 -1
-1 -1 \; 0 -1 9 -1 9 -1 \; -1 -1 -1 -1 -1 -1 -1 -1 -1 -1 -1 -1 -1 -1
-1 -1 \; 10 -1 9 5 \; -1 -1 -1 -1 -1 -1 -1 \; -1 -1 -1 -1 -1 -1 -1
\; -1 -1 -1 -1 11 -1 -1 -1 -1 -1 -1 \; -1 12 12 \; -1 -1 -1 -1 \; -1
-1 13 -1 -1 -1 -1 -1 9 9 -1 14 \; -1 -1 15 -1 -1 -1 -1 -1 \; -1 -1
16 -1 -1 -1 -1 -1 -1 \; -1 -1 -1 -1 -1 \; -1 -1 -1 -1 -1 \; -1 -1 17
-1 -1 -1 -1 -1 \; 0 18 -1 -1 \; 0 19 -1 -1 20 \; 20 -1 -1 \; -1 -1
\; 21 \; -2 -2 -2 -2 -2 -2 -2 -2 \;;
#X f 14;
#X obj 470 163 text define -k paramTable;
#A set 46 20 \; 20 46 \; 57 58 59 60 \; 12083 12084 25 48 49 50 13623
13624 13879 13880 \; 71 18508 18764 19020 19276 18509 18765 19021 19277
18766 19278 18767 19279 20556 20558 20557 20812 19534 19533 20046 20045
19789 \; 1 2 3 4 5 6 7 8 \; 824 823 \; 48 100 12083 12084 49 12625
12645 12646 103 104 \; 26987 26901 27243 27157 \; 1 2 3 4 5 6 7 8 9
10 11 12 13 14 15 16 17 \; 46 51 52 13108 122 104 \; 46 136 135 \;
397 1933 3469 36493 \; 58 150 151 \; 4504 4248 3992 3736 3480 3224
2968 \; 39324 39325 39580 39581 \; 55 56 150 \; 166 167 \; 43522 43523
\; 44463 44719 45233 45234 \; 46775 47287 36535 4535 4023 3511 2999
2487 \; 71 23225 27834 \;;
#X f 14;
#X text 219 143 -1 = byte \, 0...255 paramTable ref;
#X text 483 146 param name;
#X obj 10 274 s pageNAME;
#X obj 10 202 r PAGE_UD;
#X obj 10 230 b;
#X obj 10 256 list store;
#X obj 128 64 s SHORTCUT;
#X obj 82 64 t a a;
#N canvas 0 50 343 320 paramName 0;
#X obj 18 12 inlet;
#N canvas 960 578 385 398 get 0;
#X obj 54 200 text get paramNames;
#X obj 179 249 list prepend;
#X obj 285 136 t l;
#X obj 122 70 t a a a b;
#X obj 65 224 route -1;
#X obj 125 8 inlet;
#X obj 32 329 outlet;
#X obj 32 305 l2s .;
#X obj 32 280 list;
#X obj 32 45 t b a;
#X obj 78 109 mod 256;
#X obj 139 105 / 256;
#X obj 140 124 mod 256;
#X floatatom 159 45 5 0 0 0 - - -;
#X symbolatom 182 318 10 0 0 0 - - -;
#X connect 0 0 4 0;
#X connect 1 0 2 0;
#X connect 1 0 8 1;
#X connect 1 0 14 0;
#X connect 2 0 1 1;
#X connect 3 0 10 0;
#X connect 3 1 11 0;
#X connect 3 3 2 0;
#X connect 4 1 1 0;
#X connect 5 0 9 0;
#X connect 7 0 6 0;
#X connect 8 0 7 0;
#X connect 9 0 8 0;
#X connect 9 1 3 0;
#X connect 10 0 0 0;
#X connect 11 0 12 0;
#X connect 12 0 0 0;
#X connect 13 0 3 0;
#X restore 18 233 pd get paramName;
#X obj 18 73 text get pageParamNames, f 14;
#X obj 18 213 list-abs/list-drip;
#X obj 124 275 f;
#X obj 151 275 + 1;
#X obj 55 275 t a b;
#X obj 55 294 list prepend;
#X obj 18 189 t a b;
#X msg 139 209 0;
#X obj 55 313 s ENCODER-r;
#X obj 18 253 list prepend name;
#X obj 87 145 * 4;
#X obj 18 163 list split 0;
#X obj 18 32 t a a;
#X obj 60 123 t b a;
#X obj 122 75 r SHORTCUT;
#X msg 122 127 0;
#X obj 45 51 s \$0paramNames;
#X obj 18 108 t b a;
#X obj 18 144 list;
#X obj 197 52 change;
#X obj 197 73 b;
#X obj 197 33 r \$0paramNames;
#X obj 60 105 inlet;
#X connect 0 0 14 0;
#X connect 1 0 11 0;
#X connect 2 0 19 0;
#X connect 3 0 1 0;
#X connect 4 0 5 0;
#X connect 4 0 7 1;
#X connect 5 0 4 1;
#X connect 6 0 7 0;
#X connect 6 1 4 0;
#X connect 7 0 10 0;
#X connect 8 0 3 0;
#X connect 8 1 9 0;
#X connect 9 0 4 1;
#X connect 11 0 6 0;
#X connect 12 0 13 1;
#X connect 13 1 8 0;
#X connect 14 0 2 0;
#X connect 14 1 18 0;
#X connect 15 0 20 0;
#X connect 15 1 12 0;
#X connect 16 0 17 0;
#X connect 17 0 12 0;
#X connect 19 0 20 0;
#X connect 19 1 20 1;
#X connect 20 0 13 0;
#X connect 21 0 22 0;
#X connect 22 0 17 0;
#X connect 23 0 21 0;
#X connect 24 0 15 0;
#X restore 149 294 pd paramName;
#N canvas 397 48 322 302 paramMode 0;
#X obj 16 13 inlet;
#X obj 165 53 text get pageParamMode, f 13;
#X obj 144 278 list prepend;
#X obj 144 297 s ENCODER-r;
#X obj 144 219 list prepend mode;
#X obj 144 151 list;
#X obj 144 200 list-abs/list-idx;
#X obj 117 107 t b a;
#X obj 117 88 f;
#X obj 132 70 +;
#X obj 132 13 r \$0encoderNum;
#X obj 155 248 r \$0encoderNum;
#X obj 165 34 r \$0paramNames;
#X obj 70 12 inlet;
#X connect 0 0 8 0;
#X connect 1 0 5 1;
#X connect 2 0 3 0;
#X connect 4 0 2 0;
#X connect 5 0 6 0;
#X connect 6 0 4 0;
#X connect 7 0 5 0;
#X connect 7 1 6 1;
#X connect 8 0 7 0;
#X connect 9 0 8 1;
#X connect 10 0 9 0;
#X connect 11 0 2 1;
#X connect 12 0 1 0;
#X connect 13 0 9 1;
#X restore 235 296 pd paramMode;
#N canvas 1063 53 432 685 params 0;
#X obj 239 173 list length;
#X obj 239 192 s paramRANGE;
#X obj 126 264 list-abs/list-drip, f 9;
#X obj 58 27 list split 1;
#X obj 198 530 f;
#X obj 225 530 + 1;
#X msg 330 303 0;
#X obj 171 503 t a b;
#X obj 129 578 list prepend;
#X obj 152 69 r PAGE_UD;
#X obj 160 190 * 4;
#X obj 92 213 list split 0;
#X obj 179 643 s ENCODER-r;
#X obj 92 71 list;
#N canvas 992 139 613 390 exceptions 0;
#X obj 46 10 inlet;
#X obj 46 357 outlet;
#X text 152 81 512 513 514 515 sync -> 5;
#X text 180 114 516 517 518 519 keytrack -> 6;
#X obj 46 59 moses 512;
#X text 371 271 MIDI controller performace settings:;
#X text 122 57 bitwise setting:;
#X text 425 289 532...539 ctl 70...77;
#N canvas 76 533 450 300 sync 0;
#X obj 46 2 inlet;
#X obj 116 253 outlet;
#X obj 65 88 moses 516;
#X msg 65 127 5;
#X obj 65 182 f2bin;
#X obj 182 125 list split;
#X obj 210 146 list split 1;
#X obj 65 108 t b a;
#X obj 239 106 - 512;
#X obj 194 254 outlet;
#X obj 65 145 text get PARAMS, f 8;
#X obj 194 173 f;
#X obj 46 22 t b a b;
#X msg 315 55 0;
#X connect 0 0 12 0;
#X connect 2 0 7 0;
#X connect 2 1 1 0;
#X connect 3 0 10 0;
#X connect 4 0 5 0;
#X connect 5 1 6 0;
#X connect 6 0 11 1;
#X connect 7 0 3 0;
#X connect 7 1 8 0;
#X connect 8 0 5 1;
#X connect 10 0 4 0;
#X connect 11 0 9 0;
#X connect 12 0 11 0;
#X connect 12 1 2 0;
#X connect 12 2 13 0;
#X connect 13 0 11 1;
#X restore 97 81 pd sync;
#X obj 439 360 outlet;
#N canvas 76 533 450 300 keytrack 0;
#X obj 124 6 inlet;
#X obj 97 261 outlet;
#X obj 46 140 f2bin;
#X obj 164 167 list split;
#X obj 192 187 list split 1;
#X obj 46 73 t b a;
#X obj 124 235 outlet;
#X obj 46 53 moses 520;
#X msg 46 92 6;
#X obj 221 148 - 516;
#X obj 46 110 text get PARAMS, f 8;
#X obj 124 216 f;
#X obj 124 27 t b a b;
#X msg 139 66 0;
#X connect 0 0 12 0;
#X connect 2 0 3 0;
#X connect 3 1 4 0;
#X connect 4 0 11 1;
#X connect 5 0 8 0;
#X connect 5 1 9 0;
#X connect 7 0 5 0;
#X connect 7 1 1 0;
#X connect 8 0 10 0;
#X connect 9 0 3 1;
#X connect 10 0 2 0;
#X connect 11 0 6 0;
#X connect 12 0 11 0;
#X connect 12 1 7 0;
#X connect 12 2 13 0;
#X connect 13 0 11 1;
#X restore 97 109 pd keytrack;
#X f 8;
#N canvas 76 533 450 300 EGrestart 0;
#X obj 126 3 inlet;
#X obj 97 241 outlet;
#X obj 46 139 f2bin;
#X obj 144 167 list split;
#X obj 172 186 list split 1;
#X obj 46 72 t b a;
#X obj 172 247 outlet;
#X msg 46 91 147;
#X obj 46 109 text get PARAMS, f 8;
#X obj 124 216 f;
#X obj 124 23 t b a b;
#X msg 139 66 0;
#X obj 46 52 moses 529;
#X obj 201 148 - 526;
#X connect 0 0 10 0;
#X connect 2 0 3 0;
#X connect 3 1 4 0;
#X connect 4 0 9 1;
#X connect 5 0 7 0;
#X connect 5 1 13 0;
#X connect 7 0 8 0;
#X connect 8 0 2 0;
#X connect 9 0 6 0;
#X connect 10 0 9 0;
#X connect 10 1 12 0;
#X connect 10 2 11 0;
#X connect 11 0 9 1;
#X connect 12 0 5 0;
#X connect 12 1 1 0;
#X connect 13 0 3 1;
#X restore 97 209 pd EGrestart;
#X f 9;
#N canvas 577 390 450 300 EGloop 0;
#X obj 124 7 inlet;
#X obj 97 241 outlet;
#X obj 46 145 f2bin;
#X obj 144 167 list split;
#X obj 172 186 list split 1;
#X obj 46 71 t b a;
#X obj 172 241 outlet;
#X obj 201 148 - 520;
#X msg 46 90 145;
#X obj 46 108 text get PARAMS, f 8;
#X obj 124 216 f;
#X obj 124 27 t b a b;
#X msg 139 66 0;
#X obj 46 51 moses 523;
#X connect 0 0 11 0;
#X connect 2 0 3 0;
#X connect 3 1 4 0;
#X connect 4 0 10 1;
#X connect 5 0 8 0;
#X connect 5 1 7 0;
#X connect 7 0 3 1;
#X connect 8 0 9 0;
#X connect 9 0 2 0;
#X connect 10 0 6 0;
#X connect 11 0 10 0;
#X connect 11 1 13 0;
#X connect 11 2 12 0;
#X connect 12 0 10 1;
#X connect 13 0 5 0;
#X connect 13 1 1 0;
#X restore 97 148 pd EGloop;
#N canvas 76 533 450 300 EGloopSEG 0;
#X obj 46 10 inlet;
#X obj 97 241 outlet;
#X obj 46 135 f2bin;
#X obj 144 167 list split;
#X obj 172 186 list split 1;
#X obj 46 61 t b a;
#X obj 172 207 outlet;
#X msg 46 80 146;
#X obj 46 98 text get PARAMS, f 8;
#X obj 46 41 moses 526;
#X obj 201 148 - 523;
#X connect 0 0 9 0;
#X connect 2 0 3 0;
#X connect 3 1 4 0;
#X connect 4 0 6 0;
#X connect 5 0 7 0;
#X connect 5 1 10 0;
#X connect 7 0 8 0;
#X connect 8 0 2 0;
#X connect 9 0 5 0;
#X connect 9 1 1 0;
#X connect 10 0 3 1;
#X restore 97 173 pd EGloopSEG;
#X f 9;
#N canvas 2 513 450 323 CTLperf 0;
#X obj 46 10 inlet;
#X obj 46 273 outlet;
#X obj 46 122 text get PARAMS, f 8;
#X obj 46 41 - 72;
#X connect 0 0 3 0;
#X connect 2 0 1 0;
#X connect 3 0 2 0;
#X restore 97 260 pd CTLperf;
#X text 215 152 520 521 522 EG LOOP -> 145;
#X text 251 181 523 524 525 EG LOOP SEG -> 146;
#X text 296 215 526 527 528 EG RESTART -> 147;
#X connect 0 0 4 0;
#X connect 4 0 1 0;
#X connect 4 1 8 0;
#X connect 8 0 10 0;
#X connect 8 1 9 0;
#X connect 10 0 12 0;
#X connect 10 1 9 0;
#X connect 11 0 14 0;
#X connect 11 1 9 0;
#X connect 12 0 13 0;
#X connect 12 1 9 0;
#X connect 13 0 11 0;
#X connect 13 1 9 0;
#X connect 14 0 9 0;
#X restore 126 440 pd exceptions;
#X f 17;
#X obj 237 69 r SHORTCUT;
#X obj 126 459 text get PARAMS, f 8;
#X obj 320 76 change;
#X obj 320 97 b;
#X obj 238 619 s \$0encoderNum;
#X obj 320 57 r \$0paramNames;
#X obj 272 260 s \$0currentParams;
#X obj 126 232 t a b a;
#X msg 237 133 0;
#X obj 92 89 t b a a;
#X obj 92 194 list;
#X obj 247 96 s clearGUI;
#X obj 153 340 list prepend param, f 7;
#X obj 153 409 s ENCODER-r;
#X obj 153 389 list prepend;
#X obj 222 341 f;
#X obj 249 341 + 1;
#X obj 153 316 t a b;
#X obj 126 296 t a a;
#X obj 58 8 inlet;
#X obj 58 625 outlet;
#X obj 129 641 outlet;
#X obj 232 222 outlet;
#X obj 344 139 outlet;
#X obj 31 48 t b a;
#X obj 219 57 bng 15 250 50 0 empty empty empty 17 7 0 10 -262144 -1
-1;
#X obj 129 597 t b a;
#X obj 152 87 t b a a b;
#X connect 0 0 1 0;
#X connect 2 0 33 0;
#X connect 3 0 39 0;
#X connect 3 1 13 1;
#X connect 4 0 5 0;
#X connect 4 0 8 1;
#X connect 4 0 19 0;
#X connect 5 0 4 1;
#X connect 6 0 4 1;
#X connect 6 0 30 1;
#X connect 7 0 8 0;
#X connect 7 1 4 0;
#X connect 8 0 41 0;
#X connect 9 0 42 0;
#X connect 10 0 11 1;
#X connect 10 0 37 0;
#X connect 11 1 22 0;
#X connect 13 0 24 0;
#X connect 14 0 16 0;
#X connect 14 1 7 0;
#X connect 15 0 23 0;
#X connect 15 0 26 0;
#X connect 16 0 7 0;
#X connect 17 0 18 0;
#X connect 18 0 23 0;
#X connect 20 0 17 0;
#X connect 22 0 2 0;
#X connect 22 1 6 0;
#X connect 22 2 21 0;
#X connect 23 0 10 0;
#X connect 24 0 25 0;
#X connect 24 1 0 0;
#X connect 24 2 25 1;
#X connect 25 0 11 0;
#X connect 27 0 29 0;
#X connect 29 0 28 0;
#X connect 30 0 31 0;
#X connect 30 0 29 1;
#X connect 31 0 30 1;
#X connect 32 0 27 0;
#X connect 32 1 30 0;
#X connect 33 0 14 0;
#X connect 33 1 32 0;
#X connect 34 0 3 0;
#X connect 39 0 13 0;
#X connect 39 1 35 0;
#X connect 40 0 26 0;
#X connect 41 0 36 0;
#X connect 41 1 12 0;
#X connect 42 0 25 0;
#X connect 42 1 10 0;
#X connect 42 2 38 0;
#X connect 42 3 26 0;
#X restore 149 221 pd params;
#X obj 156 158 s clearGUI;
#X obj 122 139 t b a b;
#X text 314 95 param names;
#N canvas 396 356 450 300 stepSeq 0;
#X obj 78 23 inlet;
#X obj 78 44 moses 10;
#N canvas 0 50 450 300 ctl 0;
#X obj 77 77 inlet;
#X restore 60 87 pd ctl;
#N canvas 0 50 450 300 stepSeq 0;
#X obj 77 77 inlet;
#X restore 123 88 pd stepSeq;
#X connect 0 0 1 0;
#X connect 1 0 2 0;
#X connect 1 1 3 0;
#X restore 137 42 pd stepSeq;
#X obj 81 42 moses 10;
#X connect 0 0 1 0;
#X connect 1 0 34 0;
#X connect 3 0 6 0;
#X connect 5 0 1 1;
#X connect 6 0 16 0;
#X connect 6 1 8 0;
#X connect 6 2 4 0;
#X connect 7 0 31 0;
#X connect 8 0 9 0;
#X connect 9 0 10 0;
#X connect 10 0 15 0;
#X connect 10 0 24 0;
#X connect 10 1 29 0;
#X connect 22 0 23 0;
#X connect 23 0 24 0;
#X connect 24 0 21 0;
#X connect 26 0 3 0;
#X connect 26 1 25 0;
#X connect 29 0 27 0;
#X connect 29 1 28 0;
#X connect 29 2 28 1;
#X connect 29 3 27 1;
#X connect 31 0 8 0;
#X connect 31 1 8 1;
#X connect 31 2 30 0;
#X connect 34 0 26 0;
#X connect 34 1 33 0;
#X restore 20 113 pd main;
#N canvas 0 50 450 328 PAGE_L_R 0;
#X obj 114 68 f;
#X obj 83 68 f;
#X obj 113 88 + 1;
#X obj 83 89 - 1;
#X obj 188 17 r pageRANGE;
#X obj 185 37 t b a;
#X obj 109 119 mod 1;
#X obj 109 168 s PAGE;
#X obj 109 140 t a b;
#X obj 83 3 r pageLEFT;
#X obj 114 23 r pageRIGHT;
#X obj 160 141 s clearGUI;
#X msg 155 63 0;
#X connect 0 0 2 0;
#X connect 1 0 3 0;
#X connect 2 0 6 0;
#X connect 3 0 6 0;
#X connect 4 0 5 0;
#X connect 5 0 12 0;
#X connect 5 1 6 1;
#X connect 6 0 0 1;
#X connect 6 0 1 1;
#X connect 6 0 8 0;
#X connect 8 0 7 0;
#X connect 8 1 11 0;
#X connect 9 0 1 0;
#X connect 10 0 0 0;
#X connect 12 0 0 1;
#X connect 12 0 1 1;
#X restore 20 167 pd PAGE_L_R;
#N canvas 0 50 450 300 PAGE_U_D 0;
#X obj 192 111 f;
#X obj 161 111 f;
#X obj 191 131 + 1;
#X obj 161 132 - 1;
#X msg 211 84 0;
#X obj 259 52 t b a;
#X obj 187 162 mod 1;
#X obj 161 32 r pageUP;
#X obj 192 52 r pageDOWN;
#X obj 262 32 r paramRANGE;
#X obj 187 226 s PAGE_UD;
#X obj 286 94 / 4;
#X obj 286 115 i;
#X obj 186 187 t a b;
#X obj 287 218 s clearGUI;
#X connect 0 0 2 0;
#X connect 1 0 3 0;
#X connect 2 0 6 0;
#X connect 3 0 6 0;
#X connect 4 0 0 1;
#X connect 4 0 1 1;
#X connect 5 0 4 0;
#X connect 5 1 11 0;
#X connect 6 0 0 1;
#X connect 6 0 1 1;
#X connect 6 0 13 0;
#X connect 7 0 1 0;
#X connect 8 0 0 0;
#X connect 9 0 5 0;
#X connect 11 0 12 0;
#X connect 12 0 6 1;
#X connect 13 0 10 0;
#X connect 13 1 14 0;
#X restore 20 142 pd PAGE_U_D;
#N canvas 20 529 450 300 clearGui 0;
#X obj 181 26 r clearGUI;
#X obj 181 144 s ENCODER-r;
#X obj 181 105 f;
#X obj 208 105 + 1;
#X obj 181 84 until;
#X msg 181 45 8;
#X msg 221 84 0;
#X obj 181 64 t a b;
#X msg 181 125 \$1 name none \, \$1 init bang;
#X connect 0 0 5 0;
#X connect 2 0 3 0;
#X connect 2 0 8 0;
#X connect 3 0 2 1;
#X connect 4 0 2 0;
#X connect 5 0 7 0;
#X connect 6 0 2 1;
#X connect 7 0 4 0;
#X connect 7 1 6 0;
#X connect 8 0 1 0;
#X restore 102 143 pd clearGui;
#X msg 137 355 write names.txt;
#N canvas 0 50 450 300 shortcuts 0;
#X obj 79 60 r SHIFT;
#X obj 79 80 sel 1 0;
#X msg 179 113 13;
#X obj 179 131 until;
#X obj 179 150 f;
#X obj 208 150 + 1;
#X obj 234 148 mod 13;
#X msg 179 168 \; KEYBOARD-r \$1 state 0;
#X msg 79 198 \; KEYBOARD-r \$1 state 2;
#X obj 79 180 list prepend 0;
#X obj 130 60 r SHORTCUT;
#X obj 130 80 t b b a;
#X connect 0 0 1 0;
#X connect 1 0 9 0;
#X connect 1 1 2 0;
#X connect 2 0 3 0;
#X connect 3 0 4 0;
#X connect 4 0 5 0;
#X connect 4 0 7 0;
#X connect 5 0 6 0;
#X connect 6 0 4 1;
#X connect 9 0 8 0;
#X connect 10 0 11 0;
#X connect 11 0 9 0;
#X connect 11 1 2 0;
#X connect 11 2 9 1;
#X restore 21 199 pd shortcuts;
#N canvas 118 483 569 385 write2XVA 0;
#X obj 89 33 r ENCODER-s;
#X obj 235 100 r \$0currentParams;
#X obj 214 120 list;
#X obj 89 72 t a b a;
#X obj 128 120 list split 1;
#X obj 99 181 list split 1;
#X obj 71 162 list split;
#X obj 130 204 list append;
#N canvas 94 270 613 422 exceptions 0;
#X obj 46 10 inlet;
#X obj 46 397 outlet;
#X text 334 120 512 513 514 515 sync -> 5;
#X text 323 146 516 517 518 519 keytrack -> 6;
#X text 383 277 MIDI controller performace settings:;
#X text 426 298 532...539 ctl 70...77;
#N canvas 2 513 450 323 CTLperf 0;
#X obj 46 10 inlet;
#X obj 46 71 - 72;
#X obj 46 156 outlet, f 8;
#X obj 46 31 t a a;
#X obj 46 99 list append;
#X obj 109 69 r \$0encWise;
#X obj 250 69 - 462;
#X obj 319 97 r \$0encWise;
#X obj 250 141 ctlout;
#X obj 250 118 list prepend;
#X connect 0 0 3 0;
#X connect 1 0 4 0;
#X connect 3 0 1 0;
#X connect 3 1 6 0;
#X connect 4 0 2 0;
#X connect 5 0 4 1;
#X connect 6 0 9 0;
#X connect 7 0 9 1;
#X connect 9 0 8 0;
#X restore 97 280 pd CTLperf;
#X obj 46 35 list split 1;
#X obj 46 99 moses 512;
#X obj 80 59 s \$0encWise;
#X obj 46 334 list append;
#X obj 121 334 r \$0encWise;
#X text 144 93 bitwise settings:;
#X text 326 178 520 521 522 EG LOOP -> 145;
#X text 326 210 523 524 525 EG LOOP SEG -> 146;
#X text 366 246 526 527 528 EG RESTART -> 147;
#X obj 97 122 bitwiseRec \$0 5 512;
#X obj 97 149 bitwiseRec \$0 6 516;
#X obj 97 179 bitwiseRec \$0 145 520;
#X obj 97 208 bitwiseRec \$0 146 524;
#X obj 97 244 bitwiseRec \$0 147 528;
#X obj 439 360 t a;
#X connect 0 0 7 0;
#X connect 6 0 21 0;
#X connect 7 0 8 0;
#X connect 7 1 9 0;
#X connect 8 0 10 0;
#X connect 8 1 16 0;
#X connect 10 0 1 0;
#X connect 11 0 10 1;
#X connect 16 0 17 0;
#X connect 16 1 21 0;
#X connect 17 0 18 0;
#X connect 17 1 21 0;
#X connect 18 0 19 0;
#X connect 18 1 21 0;
#X connect 19 0 20 0;
#X connect 19 1 21 0;
#X connect 20 0 6 0;
#X connect 20 1 21 0;
#X connect 21 0 1 0;
#X restore 130 223 pd exceptions;
#X obj 131 354 s SYS_GUI;
#X obj 263 255 swap;
#X obj 263 285 text set PARAMS;
#N canvas 0 50 450 300 brackets 0;
#X obj 149 15 inlet;
#X obj 149 251 outlet;
#X obj 172 97 list tosymbol;
#X msg 172 77 123;
#X obj 172 118 t a b;
#X obj 200 156 list tosymbol;
#X msg 200 136 125;
#X obj 136 47 t a b;
#X obj 172 176 list;
#X obj 149 224 list;
#X connect 0 0 7 0;
#X connect 2 0 4 0;
#X connect 3 0 2 0;
#X connect 4 0 8 0;
#X connect 4 1 6 0;
#X connect 5 0 8 1;
#X connect 6 0 5 0;
#X connect 7 0 9 0;
#X connect 7 1 3 0;
#X connect 8 0 9 1;
#X connect 9 0 1 0;
#X restore 131 271 pd brackets;
#X msg 131 324 try \$3 exec $xload "s \$1 \$2" \$4 on error \$3 msg
\$4 \$3 pdsend "error $msg" \$4;
#X connect 0 0 3 0;
#X connect 1 0 2 1;
#X connect 2 0 6 0;
#X connect 3 1 2 0;
#X connect 3 2 4 0;
#X connect 4 0 6 1;
#X connect 4 1 7 1;
#X connect 5 0 7 0;
#X connect 6 1 5 0;
#X connect 7 0 8 0;
#X connect 8 0 10 0;
#X connect 8 0 12 0;
#X connect 10 0 11 0;
#X connect 10 1 11 1;
#X connect 12 0 13 0;
#X connect 13 0 9 0;
#X restore 102 112 pd write2XVA;
#X obj 16 35 sys_gui;
#X obj 16 15 r SYS_GUI;
#X obj 118 8 loadbang;
#X obj 118 30 getdir;
#X obj 98 8 bng 15 250 50 0 empty empty empty 17 7 0 10 -262144 -1
-1;
#X msg 118 51 \; SYS_GUI set xload [list \$1/../Xload.exe];
#N canvas 0 50 450 300 stepSeq 0;
#X msg 108 92 16;
#X obj 108 113 until;
#X obj 121 135 f;
#X obj 151 135 + 1;
#X obj 108 72 t b b;
#X msg 148 103 0;
#X obj 213 227 print;
#X obj 121 176 text get PARAMS;
#X obj 121 153 + 434;
#X obj 108 52 inlet;
#X connect 0 0 1 0;
#X connect 1 0 2 0;
#X connect 2 0 3 0;
#X connect 2 0 8 0;
#X connect 3 0 2 1;
#X connect 4 0 0 0;
#X connect 4 1 5 0;
#X connect 5 0 2 1;
#X connect 7 0 6 0;
#X connect 8 0 7 0;
#X connect 9 0 4 0;
#X restore 18 289 pd stepSeq;
#X obj 18 227 r SHORTCUT;
#X obj 18 248 sel 5;
#X obj 18 269 del 500;
#X obj 111 276 s \$0gui1;
#X msg 111 257 label;
#N canvas 310 102 486 326 ctlPerf 0;
#X obj 19 186 text get PARAMS;
#X obj 159 78 text define ctlPerf;
#X obj 89 112 + 400;
#X obj 116 186 text get PARAMS;
#X obj 89 66 until;
#X obj 89 87 f;
#X msg 127 66 0;
#X obj 89 27 t b b;
#X obj 89 133 t a a;
#X obj 19 229 +;
#X obj 19 298 text set ctlPerf;
#X msg 50 277 1e+015;
#X obj 19 248 t a b;
#X msg 159 58 clear;
#X obj 116 165 + 1;
#X msg 89 47 8;
#X obj 122 86 + 2;
#X obj 89 6 r getCTL;
#X obj 326 70 text set ctlPerf;
#X obj 299 11 r setCTL;
#X obj 326 50 unpack;
#X obj 299 133 mod 128;
#X obj 351 131 / 128;
#X obj 351 149 i;
#X obj 299 151 t a b;
#X obj 351 167 t a b;
#X obj 299 273 text set PARAMS;
#X obj 19 205 * 128;
#X obj 368 205 f;
#X obj 366 225 + 401;
#X obj 432 202 f;
#X obj 430 222 + 400;
#X obj 299 31 t a a;
#X obj 299 91 unpack;
#X obj 299 111 t a a;
#X obj 447 118 * 2;
#X connect 0 0 27 0;
#X connect 2 0 8 0;
#X connect 3 0 9 1;
#X connect 4 0 5 0;
#X connect 5 0 16 0;
#X connect 5 0 2 0;
#X connect 6 0 5 1;
#X connect 7 0 15 0;
#X connect 7 1 6 0;
#X connect 7 1 13 0;
#X connect 8 0 0 0;
#X connect 8 1 14 0;
#X connect 9 0 12 0;
#X connect 11 0 10 1;
#X connect 12 0 10 0;
#X connect 12 1 11 0;
#X connect 13 0 1 0;
#X connect 14 0 3 0;
#X connect 15 0 4 0;
#X connect 16 0 5 1;
#X connect 17 0 7 0;
#X connect 19 0 32 0;
#X connect 20 0 18 0;
#X connect 20 1 18 1;
#X connect 21 0 24 0;
#X connect 22 0 23 0;
#X connect 23 0 25 0;
#X connect 24 0 26 0;
#X connect 24 1 28 0;
#X connect 25 0 26 0;
#X connect 25 1 30 0;
#X connect 27 0 9 0;
#X connect 28 0 29 0;
#X connect 29 0 26 1;
#X connect 30 0 31 0;
#X connect 31 0 26 1;
#X connect 32 0 33 0;
#X connect 32 1 20 0;
#X connect 33 0 34 0;
#X connect 33 1 35 0;
#X connect 34 0 21 0;
#X connect 34 1 22 0;
#X connect 35 0 28 1;
#X connect 35 0 30 1;
#X restore 234 139 pd ctlPerf;
#N canvas 0 50 450 541 keyboard 0;
#X floatatom 90 123 5 0 0 0 - - -;
#X obj 157 85 r KEYBOARD-s;
#X obj 202 115 r SHIFT;
#X obj 202 160 == 0;
#X obj 157 179 spigot 1;
#X obj 259 111 r pageLEFT;
#X obj 331 111 r pageRIGHT;
#X obj 268 194 spigot;
#X obj 339 197 spigot;
#X obj 242 307 f;
#X obj 211 307 f;
#X obj 241 327 + 1;
#X obj 211 328 - 1;
#X obj 223 362 mod 12;
#X msg 337 259 5;
#X obj 223 383 * 12;
#X obj 157 412 +;
#X obj 157 433 makenote 127 1000;
#X obj 258 489 poly;
#X text 110 26 not sure about this...;
#X connect 1 0 0 0;
#X connect 1 0 4 0;
#X connect 2 0 3 0;
#X connect 2 0 7 1;
#X connect 2 0 8 1;
#X connect 3 0 4 1;
#X connect 4 0 16 0;
#X connect 5 0 7 0;
#X connect 6 0 8 0;
#X connect 7 0 10 0;
#X connect 8 0 9 0;
#X connect 9 0 11 0;
#X connect 10 0 12 0;
#X connect 11 0 13 0;
#X connect 12 0 13 0;
#X connect 13 0 9 1;
#X connect 13 0 10 1;
#X connect 13 0 15 0;
#X connect 14 0 9 1;
#X connect 14 0 10 1;
#X connect 15 0 16 1;
#X connect 16 0 17 0;
#X restore 220 402 pd keyboard;
#X connect 1 0 3 0;
#X connect 8 0 3 0;
#X connect 12 0 11 0;
#X connect 13 0 14 0;
#X connect 14 0 16 0;
#X connect 15 0 14 0;
#X connect 18 0 19 0;
#X connect 19 0 20 0;
#X connect 19 1 22 0;
#X connect 20 0 17 0;
#X connect 22 0 21 0;
#X restore 27 68 pd stuff;
#X text 433 361 MIDImod;
#X text 168 359 DCO;
#X obj 21 284 bng 15 250 50 0 pageLEFT empty pageLEFT -6 -7 0 10 -262144
-1 -1;
#X obj 100 284 bng 15 250 50 0 pageRIGHT empty pageRIGHT -6 -7 0 10
-262144 -1 -1;
#X obj 154 71 XVAencoder 0 4;
#X obj 246 70 XVAencoder 1 5;
#X obj 339 69 XVAencoder 2 6;
#X obj 431 68 XVAencoder 3 7;
#X text 125 283 step+;
#X text 40 283 step-;
#X text 20 317 oct-;
#X text 18 248 oct+;
#X text 18 523 patko2021;
#X text 29 10 Interface for controlling XVA1 synth. Please install
following externals: hcs \, zexy \, ggee \, list-abs (see help menu
-> install...);
#X text 15 392 toggle shift to access shortcuts. Navigate through parameters
with page buttons (shift must be untoggled);
#X obj 184 234 XVAbtn 8 1;
#X obj 233 234 XVAbtn 9 1;
#X obj 323 235 XVAbtn 10 1;
#X obj 371 235 XVAbtn 11 1;
#X obj 419 235 XVAbtn 12 1;
#X obj 166 308 XVAbtn 0 0;
#X obj 486 308 XVAbtn 7 0;
#X obj 441 308 XVAbtn 6 0;
#X obj 393 308 XVAbtn 5 0 0;
#X obj 345 307 XVAbtn 4 0;
#X obj 302 307 XVAbtn 3 0;
#X obj 257 308 XVAbtn 2 0;
#X obj 212 308 XVAbtn 1 0;
#X text 372 287 rec;
#X text 418 286 play;
#X text 320 287 step;
#X text 11 422 This simulate some hardware interface \, every toggles
and bangs are push buttons \, canvas are OLED screens \, numberbox
are encoders \, encoder's toggles are encoder's push.;
#X text 223 286 Perf_CTL;
#X text 12 494 This patch uses Xload.exe and it's extremely slow \,
sorry for that \, it shouldn't happen with using serial...;
