#N canvas 707 238 1108 677 10;
#X obj 101 141 cnv 15 83 15 empty \$0-gui1 On.Off 2 8 0 9 -233017 -66577
0;
#X obj 101 173 cnv 15 83 15 empty \$0-gui2 Mul 2 8 0 9 -233017 -66577
0;
#X obj 109 114 nbx 5 14 0 255 0 0 \$0-num1-s \$0-num1-r empty 0 -8
0 10 -262144 -1 -1 0 256;
#X obj 109 217 nbx 5 14 0 255 0 0 \$0-num2-s \$0-num2-r empty 0 -8
0 10 -262144 -1 -1 4 256;
#X obj 301 9 r ENCODER-r;
#X obj 301 28 route \$1 \$2;
#X obj 101 157 cnv 15 83 15 empty \$0-gui1v :0 2 8 0 7 -233017 -66577
0;
#X obj 101 189 cnv 15 83 15 empty \$0-gui2v :4 2 8 0 7 -233017 -66577
0;
#X obj 275 80 route name;
#X obj 332 99 route mode;
#X obj 371 164 >= 0;
#X obj 344 313 text get paramTable;
#X obj 682 417 list length;
#X obj 344 331 t a a;
#X obj 469 313 f;
#X obj 371 236 sel 1 0;
#X obj 740 344 f;
#X obj 344 429 list split;
#X obj 372 448 list split 1;
#N canvas 471 499 385 398 get 0;
#X obj 54 200 text get paramNames;
#X obj 179 249 list prepend;
#X obj 285 136 t l;
#X obj 122 70 t a a a b;
#X obj 65 224 route -1;
#X obj 125 8 inlet;
#X obj 32 329 outlet;
#X obj 151 276 l2s .;
#X obj 32 310 list;
#X obj 32 45 t b a;
#X obj 90 135 mod 256;
#X obj 139 117 / 256;
#X obj 139 138 mod 256;
#X connect 0 0 4 0;
#X connect 1 0 2 0;
#X connect 1 0 7 0;
#X connect 2 0 1 1;
#X connect 3 0 10 0;
#X connect 3 1 11 0;
#X connect 3 3 2 0;
#X connect 4 1 1 0;
#X connect 5 0 9 0;
#X connect 7 0 8 1;
#X connect 8 0 6 0;
#X connect 9 0 8 0;
#X connect 9 1 3 0;
#X connect 10 0 0 0;
#X connect 11 0 12 0;
#X connect 12 0 0 0;
#X restore 372 466 pd get paramName;
#X obj 371 265 t b b;
#X obj 344 293 f;
#X obj 342 47 t a b;
#X obj 301 47 t a b;
#X msg 614 135 1;
#X msg 651 135 2;
#X obj 672 167 s \$0vgui;
#X obj 486 554 list prepend \$0;
#X obj 487 534 list prepend;
#X obj 557 514 r \$0vgui;
#X msg 486 573 \; \$1-gui\$2v label :\$3;
#X obj 821 107 t a b;
#X obj 740 94 t a b;
#X obj 647 585 list prepend \$0;
#X obj 647 536 list prepend;
#X obj 716 518 r \$0vgui;
#X msg 647 604 \; \$1-num\$2-r range 0 \$3;
#X obj 138 43 list prepend \$0;
#X obj 138 25 list prepend;
#X obj 207 7 r \$0vgui;
#X msg 138 61 \; \$1-num\$2-r set \$3;
#X obj 275 598 list prepend \$0;
#X obj 275 579 list prepend;
#X obj 344 561 r \$0vgui;
#X msg 275 617 \; \$1-gui\$2 label \$3;
#X obj 616 336 t b a;
#X obj 647 513 - 1;
#X obj 740 294 demux 0 1;
#X obj 540 162 s \$0val;
#X obj 138 7 r \$0val;
#X obj 755 326 r \$0val;
#X obj 483 259 r \$0val;
#N canvas 0 50 450 300 recall 0;
#X obj 111 14 inlet;
#X obj 154 142 spigot;
#X obj 200 90 == 1;
#X obj 108 167 list;
#X obj 108 142 spigot;
#X obj 252 142 spigot;
#X obj 206 167 list;
#X obj 206 142 spigot;
#X obj 285 115 == 2;
#X obj 265 29 r \$0vgui;
#X obj 193 15 inlet;
#X obj 180 241 outlet;
#X connect 0 0 4 0;
#X connect 0 0 7 0;
#X connect 1 0 3 1;
#X connect 2 0 1 1;
#X connect 2 0 4 1;
#X connect 3 0 11 0;
#X connect 4 0 3 0;
#X connect 5 0 6 1;
#X connect 6 0 11 0;
#X connect 7 0 6 0;
#X connect 8 0 5 1;
#X connect 8 0 7 1;
#X connect 9 0 2 0;
#X connect 9 0 8 0;
#X connect 10 0 1 0;
#X connect 10 0 5 0;
#X restore 356 388 pd recall;
#X obj 634 457 f;
#X text 3 273 remove waveforms 8&9 for DCO 3&4;
#X obj 634 477 - 2;
#X obj 30 334 r pageNAME;
#X obj 171 394 sel WAVEFORM;
#X msg 134 451 1;
#X obj 98 529 sel 1;
#X obj 205 572 r \$0vgui;
#X obj 190 592 f;
#X obj 175 611 f;
#X obj 100 550 t b b;
#X obj 789 274 f;
#X obj 417 209 spigot;
#X obj 607 171 == 1;
#X obj 638 171 == 2;
#X obj 604 200 spigot;
#X obj 819 274 f;
#X obj 92 489 &&;
#X obj 30 355 t b a a;
#X obj 68 396 == 4868;
#X obj 118 395 == 4869;
#X msg 29 443 0;
#X obj 171 369 list;
#X obj 175 629 s \$0vgui;
#X obj 371 185 t a a;
#X obj 167 114 tgl 15 0 empty empty empty 17 7 0 10 -262144 -1 -1 0
1;
#N canvas 81 353 801 585 ctl 0;
#X obj 58 5 inlet;
#X obj 608 30 r \$0-num2-s;
#X obj 527 29 r \$0-num1-s;
#X obj 58 26 list split 1;
#X obj 22 357 list prepend \$0;
#X obj 21 90 sel 1 0;
#X obj 249 467 list prepend \$0;
#X obj 127 240 r KEYBOARD-s;
#X obj 102 242 f;
#X obj 102 212 t b b;
#X obj 226 211 f;
#X obj 253 211 f;
#X msg 22 379 \; \$1-num\$2-r range 0 8;
#X obj 261 234 text search ctlPerf, f 7;
#X obj 261 277 route -1;
#X msg 261 296 0;
#X obj 428 10 r \$0vgui;
#X obj 359 28 list prepend;
#X obj 359 70 route 1 2;
#X obj 359 49 list trim;
#X obj 359 10 r \$0param;
#X obj 307 295 + 1;
#X obj 386 453 list prepend \$0;
#X msg 249 489 \; \$1-num\$3-r set \$2;
#X obj 329 404 route 0;
#X msg 386 430 \$2 CTL_\$1;
#X msg 386 471 \; \$1-gui\$2v label \$3;
#X obj 21 336 list prepend;
#X obj 213 378 list append;
#X obj 226 169 demux;
#X obj 253 149 - 1;
#X msg 329 430 \$1 noCTL;
#X obj 527 100 spigot;
#X msg 527 53 \$1 1;
#X msg 607 53 \$1 2;
#X obj 552 301 f;
#X obj 580 301 f;
#X obj 547 208 demux;
#X obj 572 187 - 1;
#X obj 619 256 t b a;
#X obj 660 256 t b a;
#X obj 21 49 s \$0setCTL;
#X obj 21 71 r \$0setCTL;
#X obj 571 100 r \$0setCTL;
#X obj 523 347 text search ctlPerf, f 7;
#X obj 552 326 t a a;
#X obj 523 390 route -1;
#X obj 564 445 f;
#X obj 617 461 list prepend 0, f 7;
#X obj 33 213 s getCTL;
#X obj 9 119 t b b;
#X obj 682 463 f;
#X obj 588 411 t b b a;
#X obj 682 484 route 0;
#X obj 703 510 - 1;
#X obj 547 144 list;
#X obj 587 567 s setCTL;
#X obj 616 540 pack;
#X obj 547 163 unpack;
#X obj 124 170 bng 15 250 50 0 empty empty empty 17 7 0 10 -262144
-1 -1;
#X msg 118 308 \; SHIFT 1 \; KEYBOARD-s \$1 \; SHIFT \$2;
#X obj 162 265 r SHIFT;
#X obj 118 289 list append;
#X connect 0 0 3 0;
#X connect 1 0 34 0;
#X connect 2 0 33 0;
#X connect 3 0 41 0;
#X connect 3 1 27 1;
#X connect 3 1 30 0;
#X connect 3 1 28 1;
#X connect 4 0 12 0;
#X connect 5 0 50 0;
#X connect 5 1 9 0;
#X connect 5 1 55 0;
#X connect 6 0 23 0;
#X connect 7 0 8 1;
#X connect 8 0 62 0;
#X connect 9 0 8 0;
#X connect 9 1 8 0;
#X connect 10 0 13 0;
#X connect 11 0 13 0;
#X connect 13 0 14 0;
#X connect 14 0 15 0;
#X connect 14 1 21 0;
#X connect 15 0 28 0;
#X connect 16 0 17 1;
#X connect 17 0 19 0;
#X connect 18 0 10 1;
#X connect 18 0 35 1;
#X connect 18 1 11 1;
#X connect 18 1 36 1;
#X connect 19 0 18 0;
#X connect 20 0 17 0;
#X connect 21 0 28 0;
#X connect 22 0 26 0;
#X connect 24 0 31 0;
#X connect 24 1 25 0;
#X connect 25 0 22 0;
#X connect 27 0 4 0;
#X connect 28 0 6 0;
#X connect 28 0 24 0;
#X connect 28 0 55 1;
#X connect 29 0 10 0;
#X connect 29 1 11 0;
#X connect 30 0 29 1;
#X connect 31 0 22 0;
#X connect 32 0 24 0;
#X connect 32 0 6 0;
#X connect 32 0 55 1;
#X connect 33 0 32 0;
#X connect 34 0 32 0;
#X connect 35 0 45 0;
#X connect 36 0 45 0;
#X connect 37 0 39 0;
#X connect 37 1 40 0;
#X connect 38 0 37 1;
#X connect 39 0 35 0;
#X connect 39 1 51 1;
#X connect 40 0 36 0;
#X connect 40 1 51 1;
#X connect 42 0 5 0;
#X connect 43 0 32 1;
#X connect 44 0 46 0;
#X connect 45 0 44 0;
#X connect 45 1 47 1;
#X connect 46 0 47 0;
#X connect 46 1 52 0;
#X connect 47 0 57 0;
#X connect 48 0 56 0;
#X connect 50 0 29 0;
#X connect 50 0 27 0;
#X connect 50 1 49 0;
#X connect 51 0 53 0;
#X connect 52 0 47 0;
#X connect 52 1 51 0;
#X connect 52 2 48 0;
#X connect 53 1 54 0;
#X connect 54 0 57 1;
#X connect 55 0 58 0;
#X connect 57 0 56 0;
#X connect 58 0 37 0;
#X connect 58 1 38 0;
#X connect 59 0 9 0;
#X connect 61 0 62 1;
#X connect 62 0 60 0;
#X restore 287 178 pd ctl;
#X obj 167 216 tgl 15 0 empty empty empty 17 7 0 10 -262144 -1 -1 0
1;
#X obj 191 134 list append 1, f 9;
#X obj 193 214 list append 2, f 9;
#X obj 750 571 s \$0range;
#X obj 419 118 route param;
#X obj 420 137 s \$0param;
#X obj 902 23 r \$0setCTL;
#X obj 821 26 r \$0-num2-s;
#X obj 740 25 r \$0-num1-s;
#X obj 902 44 == 0;
#X obj 850 272 list prepend \$1;
#X obj 950 273 list prepend \$2;
#X obj 850 310 s ENCODER-s;
#X obj 740 65 spigot 1;
#X obj 821 67 spigot 1;
#X obj 483 137 route init;
#X obj 483 163 s \$0init;
#X obj 537 488 r \$0init;
#X msg 523 509 _;
#X obj 562 319 f;
#X obj 332 118 t a a a;
#X obj 556 259 sel -1 -2;
#X msg 557 278 255;
#X msg 588 279 127;
#X connect 4 0 5 0;
#X connect 5 0 23 0;
#X connect 5 1 22 0;
#X connect 8 0 42 0;
#X connect 8 0 75 0;
#X connect 8 1 9 0;
#X connect 9 0 100 0;
#X connect 9 1 84 0;
#X connect 10 0 77 0;
#X connect 11 0 13 0;
#X connect 12 0 46 0;
#X connect 12 0 53 1;
#X connect 13 0 17 0;
#X connect 13 1 12 0;
#X connect 13 1 52 1;
#X connect 14 0 17 1;
#X connect 15 0 20 0;
#X connect 15 1 16 0;
#X connect 15 1 99 0;
#X connect 16 0 28 0;
#X connect 17 1 18 0;
#X connect 18 0 19 0;
#X connect 19 0 28 0;
#X connect 20 0 21 0;
#X connect 20 1 14 0;
#X connect 21 0 11 0;
#X connect 22 0 8 0;
#X connect 22 1 25 0;
#X connect 23 0 8 0;
#X connect 23 1 24 0;
#X connect 24 0 26 0;
#X connect 24 0 66 0;
#X connect 24 0 67 0;
#X connect 25 0 26 0;
#X connect 25 0 66 0;
#X connect 25 0 67 0;
#X connect 27 0 30 0;
#X connect 28 0 27 0;
#X connect 29 0 28 1;
#X connect 31 0 47 0;
#X connect 31 1 25 0;
#X connect 31 1 69 0;
#X connect 32 0 47 0;
#X connect 32 1 24 0;
#X connect 32 1 64 0;
#X connect 33 0 36 0;
#X connect 34 0 33 0;
#X connect 34 0 83 0;
#X connect 35 0 34 1;
#X connect 37 0 40 0;
#X connect 38 0 37 0;
#X connect 39 0 38 1;
#X connect 41 0 44 0;
#X connect 42 0 41 0;
#X connect 43 0 42 1;
#X connect 45 0 52 0;
#X connect 45 1 17 1;
#X connect 46 0 34 0;
#X connect 47 0 16 0;
#X connect 47 1 45 0;
#X connect 49 0 38 0;
#X connect 50 0 16 1;
#X connect 51 0 14 1;
#X connect 52 0 17 0;
#X connect 53 0 55 0;
#X connect 55 0 46 0;
#X connect 56 0 71 0;
#X connect 57 0 58 0;
#X connect 57 0 61 0;
#X connect 58 0 70 1;
#X connect 59 0 63 0;
#X connect 60 0 61 1;
#X connect 61 0 62 1;
#X connect 62 0 76 0;
#X connect 63 0 53 0;
#X connect 63 1 62 0;
#X connect 64 0 47 1;
#X connect 65 0 64 1;
#X connect 66 0 65 1;
#X connect 67 0 68 1;
#X connect 68 0 69 1;
#X connect 69 0 47 1;
#X connect 70 0 59 0;
#X connect 71 0 74 0;
#X connect 71 1 72 0;
#X connect 71 2 73 0;
#X connect 72 0 70 0;
#X connect 73 0 70 0;
#X connect 74 0 70 1;
#X connect 75 0 57 0;
#X connect 77 0 15 0;
#X connect 77 1 68 0;
#X connect 77 1 65 0;
#X connect 78 0 81 0;
#X connect 80 0 82 0;
#X connect 81 0 79 0;
#X connect 82 0 79 0;
#X connect 84 0 85 0;
#X connect 84 1 95 0;
#X connect 86 0 89 0;
#X connect 87 0 94 0;
#X connect 88 0 93 0;
#X connect 89 0 93 1;
#X connect 89 0 94 1;
#X connect 90 0 92 0;
#X connect 91 0 92 0;
#X connect 93 0 32 0;
#X connect 93 0 90 0;
#X connect 94 0 31 0;
#X connect 94 0 91 0;
#X connect 95 0 96 0;
#X connect 95 1 48 0;
#X connect 97 0 98 0;
#X connect 98 0 28 0;
#X connect 99 0 34 0;
#X connect 100 0 10 0;
#X connect 100 1 21 1;
#X connect 100 2 101 0;
#X connect 101 0 102 0;
#X connect 101 1 103 0;
#X connect 102 0 99 1;
#X connect 103 0 99 1;
#X coords 0 -1 1 1 85 150 2 100 100;
